<?xml version="1.0" encoding="utf-8"?>
<!-- Generator: Adobe Illustrator 16.0.0, SVG Export Plug-In . SVG Version: 6.00 Build 0)  -->
<!DOCTYPE svg PUBLIC "-//W3C//DTD SVG 1.1//EN" "http://www.w3.org/Graphics/SVG/1.1/DTD/svg11.dtd">
<svg version="1.1" id="Layer_1" xmlns="http://www.w3.org/2000/svg" xmlns:xlink="http://www.w3.org/1999/xlink" x="0px" y="0px"
	 width="360px" height="150px" viewBox="0 0 360 150" enable-background="new 0 0 360 150" xml:space="preserve">
<path fill-rule="evenodd" clip-rule="evenodd" fill="none" stroke="#F26B3C" stroke-miterlimit="10" d="M6,111.757
	c0,0,4.35-3.729,9.943-3.729s4.35,2.486,12.429,2.486s9.943-3.729,14.914-3.729c4.972,0,3.107,6.215,9.943,6.215
	c6.836,0,9.943-6.215,16.157-6.215S79.329,113,90.514,113c11.186,0,8.7-3.729,19.886-3.729c11.186,0,23.614,5.593,28.586-4.972
	c4.971-10.564,15.536-70.843,22.371-70.843c6.836,0,4.972,38.528,11.186,44.743c6.214,6.214,8.078,1.864,13.671,7.457
	c5.594,5.593,6.836,14.914,12.429,14.914s10.564-11.186,21.129-11.186s5.593,14.914,16.157,14.914s11.807-1.243,18.643-1.243
	s5.593,6.215,12.429,6.215s18.021-12.429,27.343-12.429s14.293,13.672,24.857,13.672s5.593-6.215,11.186-6.215
	s9.321,10.564,23.614,1.243"/>
</svg>
