<?xml version="1.0" encoding="utf-8"?>
<!-- Generator: Adobe Illustrator 16.0.0, SVG Export Plug-In . SVG Version: 6.00 Build 0)  -->
<!DOCTYPE svg PUBLIC "-//W3C//DTD SVG 1.1//EN" "http://www.w3.org/Graphics/SVG/1.1/DTD/svg11.dtd">
<svg version="1.1" id="Layer_1" xmlns="http://www.w3.org/2000/svg" xmlns:xlink="http://www.w3.org/1999/xlink" x="0px" y="0px"
	 width="360px" height="150px" viewBox="0 0 360 150" enable-background="new 0 0 360 150" xml:space="preserve">
<path fill-rule="evenodd" clip-rule="evenodd" fill="none" stroke="#F26B3C" stroke-miterlimit="10" d="M7,115.145
	c0,0,17.699-10.986,28.074-10.986c10.375,0,12.206,6.104,20.75,6.104c8.544,0,10.985-3.663,21.971-3.663
	c10.986,0,8.544,7.324,20.75,7.324c12.206,0,15.257-9.766,26.853-9.766s9.154,4.272,17.088-3.661
	c7.934-7.935,12.816-64.692,21.971-64.692c9.154,0,0.61,45.163,18.309,45.163s7.324-18.309,20.75-18.309
	c13.427,0,9.766,18.309,29.295,18.309s5.493-9.765,13.427-9.765c7.935,0,6.103,24.412,15.867,24.412
	c9.766,0,8.545-7.323,17.09-7.323c8.543,0,8.543,9.765,17.088,9.765c8.544,0,7.323-8.543,19.529-8.543s19.53,24.411,39.06,23.191"/>
</svg>
